<?xml version="1.0" encoding="utf-8"?>
<!-- Svg Vector Icons : http://www.onlinewebfonts.com/icon -->
<!DOCTYPE svg PUBLIC "-//W3C//DTD SVG 1.1//EN" "http://www.w3.org/Graphics/SVG/1.1/DTD/svg11.dtd">
<svg version="1.1" xmlns="http://www.w3.org/2000/svg" xmlns:xlink="http://www.w3.org/1999/xlink" x="0px" y="0px" viewBox="0 0 256 256" enable-background="new 0 0 256 256" xml:space="preserve">
<metadata> Svg Vector Icons : http://www.onlinewebfonts.com/icon </metadata>
<g><g><path fill="#000000" d="M179.4,184.3c-4.4-0.7-4.5-12.6-4.5-12.6s12.8-12.6,15.6-29.5c7.5,0,12.2-18,4.6-24.3c0.3-6.7,9.7-52.4-37.7-52.4c-47.4,0-38,45.7-37.7,52.4c-7.5,6.3-2.9,24.3,4.6,24.3c2.8,16.9,15.6,29.5,15.6,29.5s-0.1,11.9-4.5,12.6c-14,2.2-66.6,25.2-66.6,50.4h88.5H246C246,209.5,193.5,186.6,179.4,184.3z M89.3,188.4c10.2-6.3,22.5-12.1,32.6-15.5c-3.6-5.2-7.7-12.2-10.2-20.5c-3.5-2.9-6.4-7-8.3-12.1c-1.9-5.1-2.6-10.8-2-16.1c0.4-3.8,1.5-7.3,3.2-10.4c-1-10.7-1.7-31.8,12.1-47.2c5.3-5.9,12.1-10.2,20.2-12.8c-1.4-14.9-9-32.4-38.4-32.4c-47.4,0-38,45.7-37.7,52.4C53.3,80,57.9,98,65.5,98c2.8,16.9,15.6,29.5,15.6,29.5s-0.1,11.9-4.5,12.6C62.5,142.3,10,165.3,10,190.5h76C87,189.8,88.1,189.1,89.3,188.4z"/></g></g>
</svg>